<svg xmlns="http://www.w3.org/2000/svg"><symbol id="cart-outline" viewBox="0 0 270 270"><circle cx="84.2" cy="235.7" r="20.5"/><circle cx="197.9" cy="235.7" r="20.5"/><path d="M37.3 49.9l-6.5-20.1h51a8 8 0 0 0 8-8 8 8 0 0 0-8-8H8.9l11.6 36.1 42.7 132.8h155.2l42.7-132.8zm74 58.4l-5.2-42.4h69.4l-5.1 42.4zm57.1 16l-5.1 42.4h-45l-5.1-42.4zm23.2-58.4h47.6l-13.7 42.4h-39zm-149.2 0H90l5.1 42.4h-39l-8.1-25zm24.9 77.2l-6.1-18.8h35.9l5.1 42.4H74.9zm139.4 23.6h-27.3l5.1-42.4h35.9z"/><path fill="none" stroke="#000" stroke-linecap="round" stroke-miterlimit="10" stroke-width="13.75" d="M218.4 202.4H63.7"/></symbol><symbol id="back" viewBox="0 0 270 270"><path fill="none" stroke="#000" stroke-linecap="round" stroke-linejoin="round" stroke-width="32" d="M239.3 244.6L30.7 135 239.3 25.4"/></symbol><symbol id="cart" viewBox="0 0 270 270"><circle cx="84.2" cy="235.7" r="20.5"/><circle cx="197.9" cy="235.7" r="20.5"/><path stroke="#000" stroke-linecap="round" stroke-miterlimit="10" stroke-width="13.75" d="M218.4 202.4H63.7"/><path d="M37.3 49.9l-6.5-20.1h51a8 8 0 0 0 8-8 8 8 0 0 0-8-8H8.9l11.6 36.1 42.7 132.8h155.2l42.7-132.8z"/></symbol><symbol id="download" viewBox="0 0 270 270"><path fill="none" stroke="#000" stroke-linecap="round" stroke-linejoin="round" stroke-width="32" d="M37.9 208v41.3h194.2V208"/><path fill="none" stroke="#000" stroke-linecap="round" stroke-linejoin="round" stroke-width="16" d="M161 147.7v-111h-52v111H66.9l68.1 65.1 68.1-65.1H161z"/></symbol><symbol id="facebook" viewBox="0 0 270 270"><path fill-rule="evenodd" d="M7 7h256v256h-78.9v-99.4h33l5.5-39.2h-38.5V97.6a15.2 15.2 0 0 1 15.1-15.1h24.9V46.4l-31.3-1.3c-29.2-1.1-49 20.9-49 46.9v32.4h-33v39.2h33V263H7V7z"/></symbol><symbol id="hamburger" viewBox="0 0 270 270"><rect width="256" height="32" x="7" y="119" rx="13.9"/><rect width="256" height="32" x="7" y="24" rx="16"/><rect width="256" height="32" x="7" y="216" rx="16"/></symbol><symbol id="heart-outline" viewBox="0 0 270 270"><path d="M135 263a7.4 7.4 0 0 1-4.7-1.6C79 220.7 43.1 181 23.6 143.4 2.6 102.9 5.3 73.5 11.3 56A72.6 72.6 0 0 1 79.1 7c23.4-.2 43.7 11 55.9 30.1A64.4 64.4 0 0 1 190.2 7h.7a72.6 72.6 0 0 1 67.8 49c6 17.5 8.7 46.9-12.3 87.4-19.5 37.6-55.4 77.3-106.7 118a7.4 7.4 0 0 1-4.7 1.6zM79.9 22.1h-.6c-20.2.2-44.7 12.3-53.7 38.8-7.9 23-12.7 86.6 109.4 184.9C257.1 147.5 252.3 83.9 244.4 60.9c-9-26.5-33.5-38.6-53.7-38.8h-.6c-22.2 0-40.1 12.8-48 34.5a7.6 7.6 0 0 1-14.2 0c-7.9-21.7-25.8-34.5-48-34.5z"/></symbol><symbol id="heart" viewBox="0 0 270 270"><path d="M135 263a7.4 7.4 0 0 1-4.7-1.6C79 220.7 43.1 181 23.6 143.4 2.6 102.9 5.3 73.5 11.3 56A72.6 72.6 0 0 1 79.1 7c23.4-.2 43.7 11 55.9 30.1A64.4 64.4 0 0 1 190.2 7h.7a72.6 72.6 0 0 1 67.8 49c6 17.5 8.7 46.9-12.3 87.4-19.5 37.6-55.4 77.3-106.7 118a7.4 7.4 0 0 1-4.7 1.6z"/></symbol><symbol id="instagram" viewBox="0 0 270 270"><path d="M173.5 54.3H95.7a39.9 39.9 0 0 0-39.8 39.8v83a39.9 39.9 0 0 0 39.8 39.8h77.8a39.9 39.9 0 0 0 39.9-39.8v-83a39.9 39.9 0 0 0-39.9-39.8zm-38.6 131.8a51.3 51.3 0 1 1 51.3-51.2 51.2 51.2 0 0 1-51.3 51.2zM187 95a12.2 12.2 0 1 1 0-24.3 12.2 12.2 0 0 1 0 24.3z"/><circle cx="134.7" cy="134.9" r="33.6"/><path d="M207.3 7.3H62.7A55.8 55.8 0 0 0 7 63.2v143.6a55.8 55.8 0 0 0 55.7 55.9h144.6a55.8 55.8 0 0 0 55.7-55.9V63.2a55.8 55.8 0 0 0-55.7-55.9zm20.4 169.8a54.4 54.4 0 0 1-54.2 54.1H95.7a54.3 54.3 0 0 1-54.1-54.1v-83A54.3 54.3 0 0 1 95.7 40h77.8a54.4 54.4 0 0 1 54.2 54.1z"/></symbol><symbol id="trash" viewBox="0 0 270 270"><path fill="none" stroke="#000" stroke-linecap="round" stroke-linejoin="round" stroke-width="16" d="M201.9 253.6H68.1L45.4 56.8h179.2l-22.7 196.8zm30.7-224.8H37.4"/><rect width="55.6" height="19.21" x="107.2" y="12.4" rx="9.6"/><path fill="none" stroke="#000" stroke-linecap="round" stroke-linejoin="round" stroke-width="16" d="M100.3 86.1l10.3 138.2m48.8 0l10.3-138.2"/></symbol><symbol id="twitter" viewBox="0 0 270 270"><path d="M7 7v256h256V7zm195.9 93.2c0 1.5.1 3 .1 4.5 0 46.3-35.3 99.6-99.7 99.6a98.5 98.5 0 0 1-53.6-15.7 75.5 75.5 0 0 0 8.3.5 70.3 70.3 0 0 0 43.5-15 35.1 35.1 0 0 1-32.7-24.3 35.2 35.2 0 0 0 6.6.6 34.6 34.6 0 0 0 9.2-1.2 35.1 35.1 0 0 1-28.1-34.3v-.5a34.1 34.1 0 0 0 15.9 4.4 35 35 0 0 1-15.6-29.1 34.5 34.5 0 0 1 4.7-17.6 99.5 99.5 0 0 0 72.2 36.5 34.2 34.2 0 0 1-.9-7.9 35.1 35.1 0 0 1 60.6-24 70.1 70.1 0 0 0 22.2-8.5 34.6 34.6 0 0 1-15.4 19.4 70.3 70.3 0 0 0 20.1-5.5 71.3 71.3 0 0 1-17.4 18.1z"/></symbol><symbol id="x" viewBox="0 0 270 270"><rect width="301" height="32" x="-15.5" y="119" rx="16" transform="rotate(45 134.977 135.01)"/><rect width="301" height="32" x="-15.5" y="119" rx="16" transform="rotate(135 134.99 134.996)"/></symbol></svg>