<svg xmlns="http://www.w3.org/2000/svg"><symbol id="arrow-back" viewBox="0 0 270 270"><path d="M226.5 260.6a12.2 12.2 0 0 1-6.5-1.9L37 149.2c-4.7-2.8-7.5-8.3-7.5-14.2s2.8-11.4 7.5-14.2L220 11.3c6.8-4.2 15.3-1.1 18.9 6.7s1 17.5-5.9 21.6L73.7 135 233 230.4c6.9 4.1 9.5 13.8 5.9 21.6-2.5 5.5-7.4 8.6-12.4 8.6z"/></symbol><symbol id="arrow-next" viewBox="0 0 270 270"><path d="M43.5 260.6a12.2 12.2 0 0 0 6.5-1.9l183-109.5c4.7-2.8 7.5-8.3 7.5-14.2s-2.8-11.4-7.5-14.2L50 11.3c-6.8-4.2-15.3-1.1-18.9 6.7s-1 17.5 5.9 21.6L196.3 135 37 230.4c-6.9 4.1-9.5 13.8-5.9 21.6 2.5 5.5 7.4 8.6 12.4 8.6z"/></symbol><symbol id="cart-outline" viewBox="0 0 270 270"><circle cx="84.2" cy="235.7" r="20.5"/><circle cx="197.9" cy="235.7" r="20.5"/><path d="M37.3 49.9l-6.5-20.1h51a8 8 0 0 0 8-8 8 8 0 0 0-8-8H8.9l11.6 36.1 42.7 132.8h155.2l42.7-132.8zm74 58.4l-5.2-42.4h69.4l-5.1 42.4zm57.1 16l-5.1 42.4h-45l-5.1-42.4zm23.2-58.4h47.6l-13.7 42.4h-39zm-149.2 0H90l5.1 42.4h-39l-8.1-25zm24.9 77.2l-6.1-18.8h35.9l5.1 42.4H74.9zm139.4 23.6h-27.3l5.1-42.4h35.9zm11.7 42.6H63.7a6.9 6.9 0 0 1 0-13.8h154.7a6.9 6.9 0 0 1 0 13.8z"/></symbol><symbol id="cart" viewBox="0 0 270 270"><circle cx="84.2" cy="235.7" r="20.5"/><circle cx="197.9" cy="235.7" r="20.5"/><path d="M218.4 209.3H63.7a6.9 6.9 0 0 1 0-13.8h154.7a6.9 6.9 0 0 1 0 13.8zM37.3 49.9l-6.5-20.1h51a8 8 0 0 0 8-8 8 8 0 0 0-8-8H8.9l11.6 36.1 42.7 132.8h155.2l42.7-132.8z"/></symbol><symbol id="download" viewBox="0 0 270 270"><path d="M232.1 265.3H37.9a16 16 0 0 1-16-16V208a16 16 0 0 1 32 0v25.3h162.2V208a16 16 0 0 1 32 0v41.3a16 16 0 0 1-16 16z"/><path d="M135 220.8a7.7 7.7 0 0 1-5.5-2.2l-68.1-65.2a7.9 7.9 0 0 1 5.5-13.7H101v-103a8 8 0 0 1 8-8h52a8 8 0 0 1 8 8v103h34.1a7.9 7.9 0 0 1 5.5 13.7l-68.1 65.2a7.7 7.7 0 0 1-5.5 2.2zm-48.1-65.1l48.1 46 48.1-46H161a8 8 0 0 1-8-8v-103h-36v103a8 8 0 0 1-8 8z"/></symbol><symbol id="facebook" viewBox="0 0 270 270"><path fill-rule="evenodd" d="M7 7h256v256h-78.9v-99.4h33l5.5-39.2h-38.5V97.6a15.2 15.2 0 0 1 15.1-15.1h24.9V46.4l-31.3-1.3c-29.2-1.1-49 20.9-49 46.9v32.4h-33v39.2h33V263H7V7z"/></symbol><symbol id="filter" viewBox="0 0 270 270"><path d="M68 144.8l-37 64h73.9l-36.9-64zm134-20.6l37-64h-73.9l36.9 64z"/><path d="M247 98.5H23a12 12 0 0 1 0-24h224a12 12 0 0 1 0 24zm0 96H23a12 12 0 0 1 0-24h224a12 12 0 0 1 0 24z"/></symbol><symbol id="hamburger" viewBox="0 0 270 270"><rect width="256" height="32" x="7" y="119" rx="13.9"/><rect width="256" height="32" x="7" y="24" rx="16"/><rect width="256" height="32" x="7" y="216" rx="16"/></symbol><symbol id="heart-outline" viewBox="0 0 270 270"><path d="M135 263a7.4 7.4 0 0 1-4.7-1.6C79 220.7 43.1 181 23.6 143.4 2.6 102.9 5.3 73.5 11.3 56A72.6 72.6 0 0 1 79.1 7c23.4-.2 43.7 11 55.9 30.1A64.4 64.4 0 0 1 190.2 7h.7a72.6 72.6 0 0 1 67.8 49c6 17.5 8.7 46.9-12.3 87.4-19.5 37.6-55.4 77.3-106.7 118a7.4 7.4 0 0 1-4.7 1.6zM79.9 22.1h-.6c-20.2.2-44.7 12.3-53.7 38.8-7.9 23-12.7 86.6 109.4 184.9C257.1 147.5 252.3 83.9 244.4 60.9c-9-26.5-33.5-38.6-53.7-38.8h-.6c-22.2 0-40.1 12.8-48 34.5a7.6 7.6 0 0 1-14.2 0c-7.9-21.7-25.8-34.5-48-34.5z"/></symbol><symbol id="heart" viewBox="0 0 270 270"><path d="M135 263a7.4 7.4 0 0 1-4.7-1.6C79 220.7 43.1 181 23.6 143.4 2.6 102.9 5.3 73.5 11.3 56A72.6 72.6 0 0 1 79.1 7c23.4-.2 43.7 11 55.9 30.1A64.4 64.4 0 0 1 190.2 7h.7a72.6 72.6 0 0 1 67.8 49c6 17.5 8.7 46.9-12.3 87.4-19.5 37.6-55.4 77.3-106.7 118a7.4 7.4 0 0 1-4.7 1.6z"/></symbol><symbol id="instagram" viewBox="0 0 270 270"><path d="M173.5 54.3H95.7a39.9 39.9 0 0 0-39.8 39.8v83a39.9 39.9 0 0 0 39.8 39.8h77.8a39.9 39.9 0 0 0 39.9-39.8v-83a39.9 39.9 0 0 0-39.9-39.8zm-38.6 131.8a51.3 51.3 0 1 1 51.3-51.2 51.2 51.2 0 0 1-51.3 51.2zM187 95a12.2 12.2 0 1 1 0-24.3 12.2 12.2 0 0 1 0 24.3z"/><circle cx="134.7" cy="134.9" r="33.6"/><path d="M207.3 7.3H62.7A55.8 55.8 0 0 0 7 63.2v143.6a55.8 55.8 0 0 0 55.7 55.9h144.6a55.8 55.8 0 0 0 55.7-55.9V63.2a55.8 55.8 0 0 0-55.7-55.9zm20.4 169.8a54.4 54.4 0 0 1-54.2 54.1H95.7a54.3 54.3 0 0 1-54.1-54.1v-83A54.3 54.3 0 0 1 95.7 40h77.8a54.4 54.4 0 0 1 54.2 54.1z"/></symbol><symbol id="trash" viewBox="0 0 270 270"><path d="M201.9 261.6H68.1a7.8 7.8 0 0 1-7.9-7L37.4 57.7a8.4 8.4 0 0 1 2-6.3 7.9 7.9 0 0 1 6-2.6h179.2a7.9 7.9 0 0 1 6 2.6 8.4 8.4 0 0 1 2 6.3l-22.8 196.9a7.8 7.8 0 0 1-7.9 7zm-126.7-16h119.6l20.8-180.8H54.4zM232.6 36.8H37.4a8 8 0 0 1 0-16h195.2a8 8 0 1 1 0 16z"/><rect width="55.6" height="19.21" x="107.2" y="12.4" rx="9.6"/><path d="M110.6 232.3a8 8 0 0 1-8-7.4L92.3 86.7a8 8 0 1 1 16-1.2l10.3 138.2a8 8 0 0 1-7.4 8.6zm48.8 0h-.6a8 8 0 0 1-7.4-8.6l10.3-138.2a8 8 0 1 1 16 1.2l-10.3 138.2a8 8 0 0 1-8 7.4z"/></symbol><symbol id="search" viewBox="0 0 270 270"><path d="M255.6 232.9L171 153.7a90.4 90.4 0 1 0-20.4 19.5l82.3 82.4a16.1 16.1 0 0 0 22.7-22.7zM33.8 99.5a65.8 65.8 0 1 1 65.7 65.8 65.7 65.7 0 0 1-65.7-65.8z"/></symbol><symbol id="twitter" viewBox="0 0 270 270"><path d="M7 7v256h256V7zm195.9 93.2c0 1.5.1 3 .1 4.5 0 46.3-35.3 99.6-99.7 99.6a98.5 98.5 0 0 1-53.6-15.7 75.5 75.5 0 0 0 8.3.5 70.3 70.3 0 0 0 43.5-15 35.1 35.1 0 0 1-32.7-24.3 35.2 35.2 0 0 0 6.6.6 34.6 34.6 0 0 0 9.2-1.2 35.1 35.1 0 0 1-28.1-34.3v-.5a34.1 34.1 0 0 0 15.9 4.4 35 35 0 0 1-15.6-29.1 34.5 34.5 0 0 1 4.7-17.6 99.5 99.5 0 0 0 72.2 36.5 34.2 34.2 0 0 1-.9-7.9 35.1 35.1 0 0 1 60.6-24 70.1 70.1 0 0 0 22.2-8.5 34.6 34.6 0 0 1-15.4 19.4 70.3 70.3 0 0 0 20.1-5.5 71.3 71.3 0 0 1-17.4 18.1z"/></symbol><symbol id="x" viewBox="0 0 270 270"><rect width="301" height="32" x="-15.5" y="119" rx="16" transform="rotate(45 134.977 135.01)"/><rect width="301" height="32" x="-15.5" y="119" rx="16" transform="rotate(135 134.99 134.996)"/></symbol></svg>