<svg xmlns="http://www.w3.org/2000/svg" id="Layer_1" width="720" height="720" viewBox="0 0 720 720"><path fill="#ff9caf" d="M0 0h720v720H0z"/><path fill="#beede4" d="M351.2 672.2s213.9-18.5 235.7-90.1c-78.6-49.6-216.9-26.6-235.7 90.1z"/><path fill="#ffd5ca" d="M389.3 0S316 66 360 94s49.9 343.8-77 294C153 337-16 472.6 0 553.8V720h427.9S441 364 528 373s54-261 6-219S420.1 19 462.6 0zM720 352.3S558 437 582 519s54.3 91-59.3 201H720z"/><path fill="#beede4" d="M665.3 316.4S509.7 165.5 428.9 215.2c23.7 88.1 165.8 119.5 236.4 101.2z"/><path fill="#ff9caf" d="M113.1 720S17 627 65 549s266.8-58 218.9 171z"/><path fill="#beede4" d="M62.3 720S149 156 226 110c-9 157-19.2 522-68.1 610z"/><path fill="#ffd5ca" d="M0 0h223c-114 86-81.2 184.1 51 198 114 12-33 167-108 101-46-40.5-72 132-166 7z"/><path fill="#beede4" d="M285.9 613.9c-.1 0-39.9 19.1-45.9 38.1 18 21 50.4 15.3 50.5 15.3a207.3 207.3 0 0 0-4.6-53.4z"/><path fill="#fff" d="M0 0h720v720H0z" opacity=".5"/></svg>