<svg id="Layer_1" data-name="Layer 1" xmlns="http://www.w3.org/2000/svg" width="720" height="720" viewBox="0 0 720 720"><title>info-card-bg</title><rect width="720" height="720" fill="#ff9caf"/><path d="M351.2,672.2s213.9-18.5,235.7-90.1C508.3,532.5,370,555.5,351.2,672.2Z" fill="#beede4"/><path d="M389.3,0S316,66,360,94s49.9,343.8-77,294C153,337-16,472.6,0,553.8V720H427.9S441,364,528,373s54-261,6-219S420.1,19,462.6,0Z" fill="#ffd5ca"/><path d="M720,352.3S558,437,582,519s54.3,91-59.3,201H720Z" fill="#ffd5ca"/><path d="M665.3,316.4S509.7,165.5,428.9,215.2C452.6,303.3,594.7,334.7,665.3,316.4Z" fill="#beede4"/><path d="M113.1,720S17,627,65,549s266.8-58,218.9,171Z" fill="#ff9caf"/><path d="M62.3,720S149,156,226,110c-9,157-19.2,522-68.1,610Z" fill="#beede4"/><path d="M0,0H223c-114,86-81.2,184.1,51,198,114,12-33,167-108,101-46-40.5-72,132-166,7Z" fill="#ffd5ca"/><path d="M285.9,613.9c-.1,0-39.9,19.1-45.9,38.1,18,21,50.4,15.3,50.5,15.3A207.3,207.3,0,0,0,285.9,613.9Z" fill="#beede4"/><g opacity="0.5"><rect width="720" height="720" fill="#fff"/></g></svg>