<svg id="Layer_1" data-name="Layer 1" xmlns="http://www.w3.org/2000/svg" width="720" height="720" viewBox="0 0 720 720"><title>printmedia-bg</title><rect width="720" height="720" fill="#446299"/><path d="M556,0H498c24,170-128.9,262.1-110,382C552,350,696,191,684,0H640C620.9,33.3,577,62.5,556,0Z" fill="#e3f6ff"/><path d="M389.3,720S484.5,386.2,417,242C344,86,116,382,0,166.2V0H427.9s76,244.8,157.1,212c121-49,45.4,476.5-25,322-87-191-16.4,167,26,186Z" fill="#ffb9b0"/><path d="M101.1,140.8s77.1,71,133.9,26.2c47,24-38.8,120.4-66,126-63-39-26-121-105.5-120.2C49.9,152,92.3,145.6,101.1,140.8Z" fill="#e3f6ff"/><path d="M178,604s335.3,149,398,0c-24-56-97.9,4-137.5-26C361.7,519.8,351,578,178,604Z" fill="#e3f6ff"/><path d="M0,720H309c-114-86-132.9-160.6-31-246,136-114,26.7-241.6-23-155C108,575,62,290,0,305Z" fill="#ffb9b0"/><g opacity="0.66"><rect width="720" height="720" fill="#fff"/></g></svg>